# xmcd
#
# Track frame offsets: 
#        150
#        7219
#        29192
#        36510
#        71067
#        75607
#        101745
#        108283
#        131770
#        135855
#        148096
#        153038
#        176266
#        179111
#
# Disc length: 2586 seconds
#
# Revision: 0
# Processed by: cddbd v1.5.2PL0 Copyright (c) Steve Scherf et al.
# Submitted via: ExactAudioCopy v0.95a5
#
DISCID=c70a180e
DTITLE=黄德源 - 浙派古琴
DYEAR=1982
DGENRE=Folk
TTITLE0=鸥鹭忘机解说
TTITLE1=鸥鹭忘机
TTITLE2=梅花三弄解说
TTITLE3=梅花三弄
TTITLE4=平沙落雁解说
TTITLE5=平沙落雁
TTITLE6=醉渔唱晚解说
TTITLE7=醉渔唱晚
TTITLE8=关山月解说
TTITLE9=关山月
TTITLE10=阳关三叠解说
TTITLE11=阳关三叠
TTITLE12=玉楼春晓解说
TTITLE13=玉楼春晓
EXTD=
EXTT0=
EXTT1=
EXTT2=
EXTT3=
EXTT4=
EXTT5=
EXTT6=
EXTT7=
EXTT8=
EXTT9=
EXTT10=
EXTT11=
EXTT12=
EXTT13=
PLAYORDER=
